#!OML:ASF H:\Dans Jumps\Project 1\Capture day 1\Session 1\subject.ASF
:FULLY-SPECIFIED
:DEGREES
377
root 0.349152 15.5717 -12.2411 29.4408 0.402604 -3.95489
lowerback 15.2123 0.81756 0.254952
upperback 2.67759 1.30822 3.07377
thorax -5.75135 0.655672 2.85207
lowerneck -19.9705 0.31542 -1.74339
upperneck 9.93849 1.17766 -1.92929
head 6.25703 0.3297 -0.215186
rclavicle 8.15017e-015 1.19271e-015
rhumerus -21.563 -20.0946 -76.212
rradius 23.9148
rwrist 32.9754
rhand -18.9323 -24.9335
rfingers 7.12502
rthumb 7.37048 -54.7851
lclavicle 8.15017e-015 1.19271e-015
lhumerus -20.7249 23.4244 79.4359
lradius 10.9906
lwrist -9.77048
lhand -25.7561 -6.34053
lfingers 7.12502
lthumb 0.781342 23.6378
rfemur -52.9143 1.16709 24.3469
rtibia 62.4377
rfoot -35.0171 -20.0372
rtoes -2.94686
lfemur -53.7261 8.59691 -16.296
ltibia 63.455
lfoot -29.9489 22.3914
ltoes -20.4003
378
root 0.338549 15.5328 -12.1132 29.6831 0.353466 -4.03381
lowerback 15.108 0.875437 0.20194
upperback 2.35562 1.38608 3.1023
thorax -6.04273 0.698953 2.89818
lowerneck -20.3599 0.3026 -1.75648
upperneck 10.0333 1.1682 -1.87239
head 6.34947 0.325813 -0.1954
rclavicle 9.93923e-015 2.5842e-014
rhumerus -21.0808 -20.091 -76.2947
rradius 23.9678
rwrist 33.1929
rhand -19.0528 -24.9023
rfingers 7.12502
rthumb 7.25421 -54.758
lclavicle 9.93923e-015 2.5842e-014
lhumerus -20.19 23.5971 79.54
lradius 11.0871
lwrist -9.69107
lhand -25.818 -6.41754
lfingers 7.12502
lthumb 0.721495 23.561
rfemur -52.7499 1.4142 24.4241
rtibia 62.6914
rfoot -35.3596 -20.6661
rtoes -3.92694
lfemur -53.6262 8.94672 -16.2561
ltibia 63.8619
lfoot -30.2378 22.6718
ltoes -21.9172
379
root 0.32759 15.4989 -11.981 29.9088 0.320977 -4.07669
lowerback 14.9815 0.924331 0.129381
upperback 2.04501 1.4481 3.1247
thorax -6.30977 0.735083 2.95222
lowerneck -20.7335 0.295882 -1.75551
upperneck 10.0686 1.16401 -1.83448
head 6.42024 0.324434 -0.18345
rclavicle -1.43125e-014 -2.42517e-014
rhumerus -20.532 -20.051 -76.3978
rradius 24.0722
rwrist 33.2966
rhand -19.1039 -24.8811
rfingers 7.12502
rthumb 7.2049 -54.7385
lclavicle -1.43125e-014 -2.42517e-014
lhumerus -19.5669 23.5161 79.7349
lradius 11.27
lwrist -9.61161
lhand -25.9519 -6.5224
lfingers 7.12502
lthumb 0.592216 23.4565
rfemur -52.4984 1.62657 24.4767
rtibia 62.8531
rfoot -35.704 -21.3044
rtoes -5.01465
lfemur -53.4464 9.28608 -16.2479
ltibia 64.1732
lfoot -30.4876 22.9388
ltoes -23.3588
380
root 0.31645 15.4714 -11.8435 30.102 0.307334 -4.07877
lowerback 14.8345 0.962819 0.0388471
upperback 1.74853 1.49236 3.13849
thorax -6.55017 0.76311 3.01106
lowerneck -21.0867 0.292729 -1.75203
upperneck 10.0679 1.16318 -1.80171
head 6.47601 0.32504 -0.173209
rclavicle -5.1684e-015 9.54166e-015
rhumerus -19.9442 -19.9497 -76.5213
rradius 24.2502
rwrist 33.2337
rhand -19.1148 -24.8679
rfingers 7.12502
rthumb 7.19429 -54.7256
lclavicle -5.1684e-015 9.54166e-015
lhumerus -18.874 23.1644 80.0072
lradius 11.5454
lwrist -9.45004
lhand -26.1788 -6.67948
lfingers 7.12502
lthumb 0.373007 23.2999
rfemur -52.1279 1.78596 24.5038
rtibia 62.9029
rfoot -36.0569 -21.9028
rtoes -6.08534
lfemur -53.1653 9.61028 -16.2759
ltibia 64.3771
lfoot -30.6878 23.1838
ltoes -24.6565
381
root 0.305209 15.4514 -11.6997 30.242 0.315284 -4.04176
lowerback 14.6768 0.98955 -0.0639707
upperback 1.46644 1.51796 3.1422
thorax -6.76848 0.782488 3.07006
lowerneck -21.3978 0.291304 -1.74936
upperneck 10.0448 1.1626 -1.76531
head 6.51754 0.326698 -0.161651
rclavicle -3.57812e-015 5.56597e-015
rhumerus -19.3536 -19.7507 -76.6638
rradius 24.5281
rwrist 32.9845
rhand -19.1096 -24.8717
rfingers 7.12502
rthumb 7.19936 -54.7292
lclavicle -3.57812e-015 5.56597e-015
lhumerus -18.1488 22.4467 80.3542
lradius 11.9537
lwrist -8.96206
lhand -26.4513 -6.84215
lfingers 7.12502
lthumb 0.109845 23.1376
rfemur -51.6012 1.87571 24.5135
rtibia 62.8173
rfoot -36.409 -22.4497
rtoes -7.14271
lfemur -52.7538 9.92677 -16.3379
ltibia 64.4629
lfoot -30.8369 23.3779
ltoes -25.7802
382
root 0.294122 15.4402 -11.5485 30.3135 0.346726 -3.96036
lowerback 14.5142 1.00331 -0.179613
upperback 1.19444 1.52322 3.1334
thorax -6.9723 0.792452 3.12724
lowerneck -21.6627 0.288949 -1.74505
upperneck 10.0374 1.15851 -1.72337
head 6.55674 0.327338 -0.148958
rclavicle -5.76476e-015 -3.1408e-014
rhumerus -18.7983 -19.442 -76.8133
rradius 24.9146
rwrist 32.597
rhand -19.1255 -24.8927
rfingers 7.12502
rthumb 7.18401 -54.7508
lclavicle -5.76476e-015 -3.1408e-014
lhumerus -17.4472 21.3565 80.743
lradius 12.5217
lwrist -8.02085
lhand -26.7923 -7.0402
lfingers 7.12502
lthumb -0.21951 22.9394
rfemur -50.8867 1.87859 24.5009
rtibia 62.572
rfoot -36.758 -22.9116
rtoes -8.15564
lfemur -52.1851 10.2326 -16.4347
ltibia 64.4164
lfoot -30.924 23.5038
ltoes -26.7532
383
root 0.283327 15.4391 -11.3885 30.3018 0.399178 -3.83541
lowerback 14.3443 1.00513 -0.3074
upperback 0.933278 1.50927 3.10956
thorax -7.15928 0.793466 3.17925
lowerneck -21.8752 0.277337 -1.75295
upperneck 10.0727 1.14066 -1.6533
head 6.60125 0.323209 -0.126729
rclavicle 4.17448e-015 -7.15625e-015
rhumerus -18.3176 -19.0017 -76.9612
rradius 25.4256
rwrist 32.1375
rhand -19.1764 -24.9377
rfingers 7.12502
rthumb 7.13487 -54.7974
lclavicle 4.17448e-015 -7.15625e-015
lhumerus -16.8202 19.8929 81.1452
lradius 13.2774
lwrist -6.46402
lhand -27.2048 -7.29671
lfingers 7.12502
lthumb -0.61785 22.6821
rfemur -49.9457 1.78978 24.4617
rtibia 62.1379
rfoot -37.105 -23.2515
rtoes -9.06486
lfemur -51.4251 10.5311 -16.5592
ltibia 64.2179
lfoot -30.9497 23.536
ltoes -27.6134
384
root 0.272869 15.4494 -11.2179 30.1971 0.471939 -3.66596
lowerback 14.1611 0.995554 -0.451754
upperback 0.682796 1.47612 3.07226
thorax -7.32613 0.785672 3.23026
lowerneck -22.0433 0.253163 -1.77485
upperneck 10.1858 1.10618 -1.5559
head 6.66392 0.312315 -0.0952279
rclavicle -8.34896e-015 -1.66979e-014
rhumerus -17.9489 -18.4138 -77.0924
rradius 26.0721
rwrist 31.6776
rhand -19.273 -25.0002
rfingers 7.12502
rthumb 7.04167 -54.863
lclavicle -8.34896e-015 -1.66979e-014
lhumerus -16.3126 18.1585 81.5195
lradius 14.2145
lwrist -4.32868
lhand -27.68 -7.65001
lfingers 7.12502
lthumb -1.07686 22.327
rfemur -48.7505 1.60608 24.3913
rtibia 61.4846
rfoot -37.4167 -23.4768
rtoes -9.9014
lfemur -50.4423 10.8202 -16.7027
ltibia 63.8406
lfoot -30.9209 23.4524
ltoes -28.3681
385
root 0.262807 15.472 -11.0349 29.9962 0.565867 -3.45525
lowerback 13.9453 0.975376 -0.613459
upperback 0.443844 1.42486 3.02558
thorax -7.46117 0.769588 3.28488
lowerneck -22.1597 0.214748 -1.8092
upperneck 10.389 1.05386 -1.44159
head 6.74795 0.293113 -0.05825
rclavicle -6.95746e-015 1.19271e-015
rhumerus -17.7172 -17.6673 -77.1924
rradius 26.8474
rwrist 31.2547
rhand -19.4131 -25.0824
rfingers 7.12502
rthumb 6.90643 -54.9497
lclavicle -6.95746e-015 1.19271e-015
lhumerus -15.9524 16.2937 81.8337
lradius 15.2894
lwrist -1.7904
lhand -28.2323 -8.14356
lfingers 7.12502
lthumb -1.61029 21.8301
rfemur -47.2781 1.32983 24.2881
rtibia 60.5823
rfoot -37.6596 -23.6026
rtoes -10.6954
lfemur -49.207 11.0968 -16.8491
ltibia 63.2561
lfoot -30.8393 23.24
ltoes -29.0674
386
root 0.253095 15.5074 -10.8378 29.6999 0.677694 -3.2029
lowerback 13.6756 0.945271 -0.800936
upperback 0.217142 1.35549 2.97447
thorax -7.55164 0.745464 3.35309
lowerneck -22.2288 0.160785 -1.87151
upperneck 10.7044 0.98693 -1.31128
head 6.86147 0.26617 -0.0132094
rclavicle -1.47101e-014 -1.70955e-014
rhumerus -17.6331 -16.769 -77.2475
rradius 27.7246
rwrist 30.8972
rhand -19.5911 -25.1863
rfingers 7.12502
rthumb 6.73452 -55.0592
lclavicle -1.47101e-014 -1.70955e-014
lhumerus -15.7472 14.4166 82.0746
lradius 16.4435
lwrist 0.929848
lhand -28.838 -8.7504
lfingers 7.12502
lthumb -2.19525 21.2181
rfemur -45.5143 0.967822 24.1464
rtibia 59.4062
rfoot -37.7997 -23.6528
rtoes -11.5002
lfemur -47.6992 11.3555 -16.9875
ltibia 62.4389
lfoot -30.6874 22.9082
ltoes -29.7775
387
root 0.243902 15.5553 -10.625 29.316 0.802673 -2.91606
lowerback 13.3235 0.903913 -1.01218
upperback 0.00189475 1.26726 2.9224
thorax -7.58189 0.712696 3.43742
lowerneck -22.2358 0.103774 -1.93518
upperneck 11.1301 0.920194 -1.20582
head 7.00214 0.235942 0.024005
rclavicle -3.18055e-015 -9.93923e-015
rhumerus -17.6894 -15.73 -77.259
rradius 28.6662
rwrist 30.5856
rhand -19.7762 -25.3168
rfingers 7.12502
rthumb 6.55589 -55.1953
lclavicle -3.18055e-015 -9.93923e-015
lhumerus -15.6921 12.6264 82.2303
lradius 17.6074
lwrist 3.60737
lhand -29.3772 -9.35499
lfingers 7.12502
lthumb -2.71596 20.6075
rfemur -43.5376 0.535228 23.9644
rtibia 58.1642
rfoot -37.9603 -23.6687
rtoes -12.3599
lfemur -45.9809 11.5945 -17.1019
ltibia 61.5817
lfoot -30.5827 22.5139
ltoes -30.5438
